solid ColorSensorTCS3200R
facet normal 0.0 1.0 0.0
  outer loop
    vertex -70.46590551973642 62.2342587542431 0.9999999999999999
    vertex -63.46590551973643 62.2342587542431 0.0
    vertex -70.46590551973642 62.2342587542431 0.0
  endloop
endfacet
facet normal 0.0 1.0 0.0
  outer loop
    vertex -63.46590551973643 62.2342587542431 0.0
    vertex -70.46590551973642 62.2342587542431 0.9999999999999999
    vertex -63.46590551973643 62.2342587542431 0.9999999999999999
  endloop
endfacet
facet normal -1.0 0.0 0.0
  outer loop
    vertex -89.46590551973642 62.2342587542431 0.9999999999999999
    vertex -89.46590551973642 29.7342587542431 0.0
    vertex -89.46590551973642 29.7342587542431 0.9999999999999999
  endloop
endfacet
facet normal -1.0 0.0 0.0
  outer loop
    vertex -89.46590551973642 29.7342587542431 0.0
    vertex -89.46590551973642 62.2342587542431 0.9999999999999999
    vertex -89.46590551973642 62.2342587542431 0.0
  endloop
endfacet
facet normal 0.0 0.0 -1.0
  outer loop
    vertex -63.46590551973643 62.2342587542431 0.0
    vertex -70.46590551973642 58.2342587542431 0.0
    vertex -70.46590551973642 62.2342587542431 0.0
  endloop
endfacet
facet normal 0.0 0.0 -1.0
  outer loop
    vertex -70.46590551973642 58.2342587542431 0.0
    vertex -63.46590551973643 62.2342587542431 0.0
    vertex -70.46590551973642 33.7342587542431 0.0
  endloop
endfacet
facet normal 0.0 0.0 -1.0
  outer loop
    vertex -70.46590551973642 33.7342587542431 0.0
    vertex -63.46590551973643 62.2342587542431 0.0
    vertex -70.46590551973642 29.7342587542431 0.0
  endloop
endfacet
facet normal 0.0 0.0 -1.0
  outer loop
    vertex -70.46590551973642 29.7342587542431 0.0
    vertex -63.46590551973643 62.2342587542431 0.0
    vertex -63.46590551973643 29.7342587542431 0.0
  endloop
endfacet
facet normal 0.0 0.0 -1.0
  outer loop
    vertex -70.46590551973642 58.2342587542431 0.0
    vertex -82.46590551973642 33.7342587542431 0.0
    vertex -82.46590551973642 58.2342587542431 0.0
  endloop
endfacet
facet normal 0.0 0.0 -1.0
  outer loop
    vertex -82.46590551973642 33.7342587542431 0.0
    vertex -70.46590551973642 58.2342587542431 0.0
    vertex -70.46590551973642 33.7342587542431 0.0
  endloop
endfacet
facet normal 0.0 0.0 -1.0
  outer loop
    vertex -82.46590551973642 62.2342587542431 0.0
    vertex -89.46590551973642 29.7342587542431 0.0
    vertex -89.46590551973642 62.2342587542431 0.0
  endloop
endfacet
facet normal 0.0 0.0 -1.0
  outer loop
    vertex -89.46590551973642 29.7342587542431 0.0
    vertex -82.46590551973642 62.2342587542431 0.0
    vertex -82.46590551973642 29.7342587542431 0.0
  endloop
endfacet
facet normal 0.0 0.0 -1.0
  outer loop
    vertex -82.46590551973642 29.7342587542431 0.0
    vertex -82.46590551973642 62.2342587542431 0.0
    vertex -82.46590551973642 58.2342587542431 0.0
  endloop
endfacet
facet normal 0.0 0.0 -1.0
  outer loop
    vertex -82.46590551973642 29.7342587542431 0.0
    vertex -82.46590551973642 58.2342587542431 0.0
    vertex -82.46590551973642 33.7342587542431 0.0
  endloop
endfacet
facet normal 1.0 0.0 0.0
  outer loop
    vertex -63.46590551973643 62.2342587542431 0.0
    vertex -63.46590551973643 29.7342587542431 0.9999999999999999
    vertex -63.46590551973643 29.7342587542431 0.0
  endloop
endfacet
facet normal 1.0 0.0 0.0
  outer loop
    vertex -63.46590551973643 29.7342587542431 0.9999999999999999
    vertex -63.46590551973643 62.2342587542431 0.0
    vertex -63.46590551973643 62.2342587542431 0.9999999999999999
  endloop
endfacet
facet normal 0.0 -1.0 0.0
  outer loop
    vertex -82.46590551973642 29.7342587542431 0.9999999999999999
    vertex -89.46590551973642 29.7342587542431 0.0
    vertex -82.46590551973642 29.7342587542431 0.0
  endloop
endfacet
facet normal 0.0 -1.0 0.0
  outer loop
    vertex -89.46590551973642 29.7342587542431 0.0
    vertex -82.46590551973642 29.7342587542431 0.9999999999999999
    vertex -89.46590551973642 29.7342587542431 0.9999999999999999
  endloop
endfacet
facet normal 0.0 0.0 1.0
  outer loop
    vertex -63.46590551973643 29.7342587542431 0.9999999999999999
    vertex -70.46590551973642 33.7342587542431 0.9999999999999999
    vertex -70.46590551973642 29.7342587542431 0.9999999999999999
  endloop
endfacet
facet normal 0.0 0.0 1.0
  outer loop
    vertex -70.46590551973642 33.7342587542431 0.9999999999999999
    vertex -63.46590551973643 29.7342587542431 0.9999999999999999
    vertex -70.46590551973642 58.2342587542431 0.9999999999999999
  endloop
endfacet
facet normal 0.0 0.0 1.0
  outer loop
    vertex -70.46590551973642 58.2342587542431 0.9999999999999999
    vertex -63.46590551973643 29.7342587542431 0.9999999999999999
    vertex -70.46590551973642 62.2342587542431 0.9999999999999999
  endloop
endfacet
facet normal 0.0 0.0 1.0
  outer loop
    vertex -70.46590551973642 62.2342587542431 0.9999999999999999
    vertex -63.46590551973643 29.7342587542431 0.9999999999999999
    vertex -63.46590551973643 62.2342587542431 0.9999999999999999
  endloop
endfacet
facet normal 0.0 0.0 1.0
  outer loop
    vertex -70.46590551973642 33.7342587542431 0.9999999999999999
    vertex -82.46590551973642 58.2342587542431 0.9999999999999999
    vertex -82.46590551973642 33.7342587542431 0.9999999999999999
  endloop
endfacet
facet normal 0.0 0.0 1.0
  outer loop
    vertex -82.46590551973642 58.2342587542431 0.9999999999999999
    vertex -70.46590551973642 33.7342587542431 0.9999999999999999
    vertex -70.46590551973642 58.2342587542431 0.9999999999999999
  endloop
endfacet
facet normal 0.0 0.0 1.0
  outer loop
    vertex -82.46590551973642 29.7342587542431 0.9999999999999999
    vertex -89.46590551973642 62.2342587542431 0.9999999999999999
    vertex -89.46590551973642 29.7342587542431 0.9999999999999999
  endloop
endfacet
facet normal 0.0 0.0 1.0
  outer loop
    vertex -89.46590551973642 62.2342587542431 0.9999999999999999
    vertex -82.46590551973642 29.7342587542431 0.9999999999999999
    vertex -82.46590551973642 62.2342587542431 0.9999999999999999
  endloop
endfacet
facet normal 0.0 0.0 1.0
  outer loop
    vertex -82.46590551973642 62.2342587542431 0.9999999999999999
    vertex -82.46590551973642 29.7342587542431 0.9999999999999999
    vertex -82.46590551973642 33.7342587542431 0.9999999999999999
  endloop
endfacet
facet normal 0.0 0.0 1.0
  outer loop
    vertex -82.46590551973642 62.2342587542431 0.9999999999999999
    vertex -82.46590551973642 33.7342587542431 0.9999999999999999
    vertex -82.46590551973642 58.2342587542431 0.9999999999999999
  endloop
endfacet
facet normal -1.0 0.0 0.0
  outer loop
    vertex -70.46590551973642 33.7342587542431 0.9999999999999999
    vertex -70.46590551973642 29.7342587542431 0.0
    vertex -70.46590551973642 29.7342587542431 0.9999999999999999
  endloop
endfacet
facet normal -1.0 0.0 0.0
  outer loop
    vertex -70.46590551973642 29.7342587542431 0.0
    vertex -70.46590551973642 33.7342587542431 0.9999999999999999
    vertex -70.46590551973642 33.7342587542431 0.0
  endloop
endfacet
facet normal -0.0 -1.0 -0.0
  outer loop
    vertex -70.46590551973642 33.7342587542431 0.9999999999999999
    vertex -82.46590551973642 33.7342587542431 0.0
    vertex -70.46590551973642 33.7342587542431 0.0
  endloop
endfacet
facet normal -0.0 -1.0 -0.0
  outer loop
    vertex -82.46590551973642 33.7342587542431 0.0
    vertex -70.46590551973642 33.7342587542431 0.9999999999999999
    vertex -82.46590551973642 33.7342587542431 0.9999999999999999
  endloop
endfacet
facet normal 1.0 0.0 0.0
  outer loop
    vertex -82.46590551973642 33.7342587542431 0.0
    vertex -82.46590551973642 29.7342587542431 0.9999999999999999
    vertex -82.46590551973642 29.7342587542431 0.0
  endloop
endfacet
facet normal 1.0 0.0 0.0
  outer loop
    vertex -82.46590551973642 29.7342587542431 0.9999999999999999
    vertex -82.46590551973642 33.7342587542431 0.0
    vertex -82.46590551973642 33.7342587542431 0.9999999999999999
  endloop
endfacet
facet normal 0.0 -1.0 0.0
  outer loop
    vertex -63.46590551973643 29.7342587542431 0.9999999999999999
    vertex -70.46590551973642 29.7342587542431 0.0
    vertex -63.46590551973643 29.7342587542431 0.0
  endloop
endfacet
facet normal 0.0 -1.0 0.0
  outer loop
    vertex -70.46590551973642 29.7342587542431 0.0
    vertex -63.46590551973643 29.7342587542431 0.9999999999999999
    vertex -70.46590551973642 29.7342587542431 0.9999999999999999
  endloop
endfacet
facet normal 1.0 0.0 0.0
  outer loop
    vertex -82.46590551973642 62.2342587542431 0.0
    vertex -82.46590551973642 58.2342587542431 0.9999999999999999
    vertex -82.46590551973642 58.2342587542431 0.0
  endloop
endfacet
facet normal 1.0 0.0 0.0
  outer loop
    vertex -82.46590551973642 58.2342587542431 0.9999999999999999
    vertex -82.46590551973642 62.2342587542431 0.0
    vertex -82.46590551973642 62.2342587542431 0.9999999999999999
  endloop
endfacet
facet normal 0.0 1.0 0.0
  outer loop
    vertex -82.46590551973642 58.2342587542431 0.9999999999999999
    vertex -70.46590551973642 58.2342587542431 0.0
    vertex -82.46590551973642 58.2342587542431 0.0
  endloop
endfacet
facet normal 0.0 1.0 0.0
  outer loop
    vertex -70.46590551973642 58.2342587542431 0.0
    vertex -82.46590551973642 58.2342587542431 0.9999999999999999
    vertex -70.46590551973642 58.2342587542431 0.9999999999999999
  endloop
endfacet
facet normal -1.0 0.0 0.0
  outer loop
    vertex -70.46590551973642 62.2342587542431 0.9999999999999999
    vertex -70.46590551973642 58.2342587542431 0.0
    vertex -70.46590551973642 58.2342587542431 0.9999999999999999
  endloop
endfacet
facet normal -1.0 0.0 0.0
  outer loop
    vertex -70.46590551973642 58.2342587542431 0.0
    vertex -70.46590551973642 62.2342587542431 0.9999999999999999
    vertex -70.46590551973642 62.2342587542431 0.0
  endloop
endfacet
facet normal 0.0 1.0 0.0
  outer loop
    vertex -89.46590551973642 62.2342587542431 0.9999999999999999
    vertex -82.46590551973642 62.2342587542431 0.0
    vertex -89.46590551973642 62.2342587542431 0.0
  endloop
endfacet
facet normal 0.0 1.0 0.0
  outer loop
    vertex -82.46590551973642 62.2342587542431 0.0
    vertex -89.46590551973642 62.2342587542431 0.9999999999999999
    vertex -82.46590551973642 62.2342587542431 0.9999999999999999
  endloop
endfacet
endsolid ColorSensorTCS3200R
