solid knob_v2_bolt
facet normal 0.0 0.0 -1.0
  outer loop
    vertex 44.218155651042004 15.81712797405595 0.0
    vertex 44.218155651042004 5.771233290156462 0.0
    vertex 41.318155651042005 10.794180632106205 0.0
  endloop
endfacet
facet normal 0.0 0.0 -1.0
  outer loop
    vertex 44.218155651042004 5.771233290156462 0.0
    vertex 44.218155651042004 15.81712797405595 0.0
    vertex 50.018155651042 15.81712797405595 0.0
  endloop
endfacet
facet normal 0.0 0.0 -1.0
  outer loop
    vertex 44.218155651042004 5.771233290156462 0.0
    vertex 50.018155651042 15.81712797405595 0.0
    vertex 50.018155651042 5.7712332901564585 0.0
  endloop
endfacet
facet normal 0.0 0.0 -1.0
  outer loop
    vertex 50.018155651042 5.7712332901564585 0.0
    vertex 50.018155651042 15.81712797405595 0.0
    vertex 52.918155651042014 10.794180632106205 0.0
  endloop
endfacet
facet normal 0.0 0.0 1.0
  outer loop
    vertex 44.218155651042004 5.771233290156462 1.9999999999999998
    vertex 44.218155651042004 15.81712797405595 1.9999999999999998
    vertex 41.318155651042005 10.794180632106205 1.9999999999999998
  endloop
endfacet
facet normal 0.0 0.0 1.0
  outer loop
    vertex 44.218155651042004 15.81712797405595 1.9999999999999998
    vertex 44.218155651042004 5.771233290156462 1.9999999999999998
    vertex 50.018155651042 5.7712332901564585 1.9999999999999998
  endloop
endfacet
facet normal 0.0 0.0 1.0
  outer loop
    vertex 44.218155651042004 15.81712797405595 1.9999999999999998
    vertex 50.018155651042 5.7712332901564585 1.9999999999999998
    vertex 50.018155651042 15.81712797405595 1.9999999999999998
  endloop
endfacet
facet normal 0.0 0.0 1.0
  outer loop
    vertex 50.018155651042 15.81712797405595 1.9999999999999998
    vertex 50.018155651042 5.7712332901564585 1.9999999999999998
    vertex 52.918155651042014 10.794180632106205 1.9999999999999998
  endloop
endfacet
facet normal -0.8660254037844387 0.5000000000000001 0.0
  outer loop
    vertex 44.218155651042004 15.81712797405595 1.9999999999999998
    vertex 41.318155651042005 10.794180632106205 0.0
    vertex 41.318155651042005 10.794180632106205 1.9999999999999998
  endloop
endfacet
facet normal -0.8660254037844387 0.5000000000000001 0.0
  outer loop
    vertex 41.318155651042005 10.794180632106205 0.0
    vertex 44.218155651042004 15.81712797405595 1.9999999999999998
    vertex 44.218155651042004 15.81712797405595 0.0
  endloop
endfacet
facet normal 0.8660254037844387 0.5000000000000001 0.0
  outer loop
    vertex 50.018155651042 15.81712797405595 0.0
    vertex 52.918155651042014 10.794180632106205 1.9999999999999998
    vertex 52.918155651042014 10.794180632106205 0.0
  endloop
endfacet
facet normal 0.8660254037844387 0.5000000000000001 0.0
  outer loop
    vertex 52.918155651042014 10.794180632106205 1.9999999999999998
    vertex 50.018155651042 15.81712797405595 0.0
    vertex 50.018155651042 15.81712797405595 1.9999999999999998
  endloop
endfacet
facet normal -4.862011176806724e-16 -1.0 -0.0
  outer loop
    vertex 50.018155651042 5.7712332901564585 1.9999999999999998
    vertex 44.218155651042004 5.771233290156462 0.0
    vertex 50.018155651042 5.7712332901564585 0.0
  endloop
endfacet
facet normal -4.862011176806724e-16 -1.0 -0.0
  outer loop
    vertex 44.218155651042004 5.771233290156462 0.0
    vertex 50.018155651042 5.7712332901564585 1.9999999999999998
    vertex 44.218155651042004 5.771233290156462 1.9999999999999998
  endloop
endfacet
facet normal 0.0 1.0 0.0
  outer loop
    vertex 44.218155651042004 15.81712797405595 1.9999999999999998
    vertex 50.018155651042 15.81712797405595 0.0
    vertex 44.218155651042004 15.81712797405595 0.0
  endloop
endfacet
facet normal 0.0 1.0 0.0
  outer loop
    vertex 50.018155651042 15.81712797405595 0.0
    vertex 44.218155651042004 15.81712797405595 1.9999999999999998
    vertex 50.018155651042 15.81712797405595 1.9999999999999998
  endloop
endfacet
facet normal -0.8660254037844387 -0.5000000000000001 -0.0
  outer loop
    vertex 41.318155651042005 10.794180632106205 1.9999999999999998
    vertex 44.218155651042004 5.771233290156462 0.0
    vertex 44.218155651042004 5.771233290156462 1.9999999999999998
  endloop
endfacet
facet normal -0.8660254037844387 -0.5000000000000001 -0.0
  outer loop
    vertex 44.218155651042004 5.771233290156462 0.0
    vertex 41.318155651042005 10.794180632106205 1.9999999999999998
    vertex 41.318155651042005 10.794180632106205 0.0
  endloop
endfacet
facet normal 0.8660254037844385 -0.5000000000000007 0.0
  outer loop
    vertex 52.918155651042014 10.794180632106205 0.0
    vertex 50.018155651042 5.7712332901564585 1.9999999999999998
    vertex 50.018155651042 5.7712332901564585 0.0
  endloop
endfacet
facet normal 0.8660254037844385 -0.5000000000000007 0.0
  outer loop
    vertex 50.018155651042 5.7712332901564585 1.9999999999999998
    vertex 52.918155651042014 10.794180632106205 0.0
    vertex 52.918155651042014 10.794180632106205 1.9999999999999998
  endloop
endfacet
endsolid knob_v2_bolt
