solid knob_v2_nut
facet normal 0.0 0.0 -1.0
  outer loop
    vertex 44.218155651042004 15.81712797405595 0.0
    vertex 43.618155651042 10.794180632106205 6.3449245857327695e-15
    vertex 41.318155651042005 10.794180632106205 0.0
  endloop
endfacet
facet normal 0.0 0.0 -1.0
  outer loop
    vertex 43.618155651042 10.794180632106205 6.3449245857327695e-15
    vertex 44.218155651042004 15.81712797405595 0.0
    vertex 43.737415259030264 11.700047289965026 6.3449245857327695e-15
  endloop
endfacet
facet normal 0.0 0.0 -1.0
  outer loop
    vertex 43.737415259030264 11.700047289965026 6.3449245857327695e-15
    vertex 44.218155651042004 15.81712797405595 0.0
    vertex 44.08706673779647 12.544180632106203 6.3449245857327695e-15
  endloop
endfacet
facet normal 0.0 0.0 -1.0
  outer loop
    vertex 44.08706673779647 12.544180632106203 6.3449245857327695e-15
    vertex 44.218155651042004 15.81712797405595 0.0
    vertex 44.64328191688909 13.26905436625912 6.3449245857327695e-15
  endloop
endfacet
facet normal 0.0 0.0 -1.0
  outer loop
    vertex 44.64328191688909 13.26905436625912 6.3449245857327695e-15
    vertex 44.218155651042004 15.81712797405595 0.0
    vertex 45.368155651042 13.82526954535174 6.3449245857327695e-15
  endloop
endfacet
facet normal 0.0 0.0 -1.0
  outer loop
    vertex 45.368155651042 13.82526954535174 6.3449245857327695e-15
    vertex 44.218155651042004 15.81712797405595 0.0
    vertex 50.018155651042 15.81712797405595 0.0
  endloop
endfacet
facet normal 0.0 0.0 -1.0
  outer loop
    vertex 45.368155651042 13.82526954535174 6.3449245857327695e-15
    vertex 50.018155651042 15.81712797405595 0.0
    vertex 46.21228899318318 14.174921024117944 6.3449245857327695e-15
  endloop
endfacet
facet normal 0.0 0.0 -1.0
  outer loop
    vertex 46.21228899318318 14.174921024117944 6.3449245857327695e-15
    vertex 50.018155651042 15.81712797405595 0.0
    vertex 47.118155651042 14.294180632106205 6.3449245857327695e-15
  endloop
endfacet
facet normal 0.0 0.0 -1.0
  outer loop
    vertex 47.118155651042 14.294180632106205 6.3449245857327695e-15
    vertex 50.018155651042 15.81712797405595 0.0
    vertex 48.024022308900825 14.174921024117944 6.3449245857327695e-15
  endloop
endfacet
facet normal 0.0 0.0 -1.0
  outer loop
    vertex 48.024022308900825 14.174921024117944 6.3449245857327695e-15
    vertex 50.018155651042 15.81712797405595 0.0
    vertex 48.868155651042 13.825269545351743 6.3449245857327695e-15
  endloop
endfacet
facet normal 0.0 0.0 -1.0
  outer loop
    vertex 48.868155651042 13.825269545351743 6.3449245857327695e-15
    vertex 50.018155651042 15.81712797405595 0.0
    vertex 49.593029385194924 13.269054366259123 6.3449245857327695e-15
  endloop
endfacet
facet normal 0.0 0.0 -1.0
  outer loop
    vertex 49.593029385194924 13.269054366259123 6.3449245857327695e-15
    vertex 50.018155651042 15.81712797405595 0.0
    vertex 50.149244564287535 12.544180632106206 6.3449245857327695e-15
  endloop
endfacet
facet normal 0.0 0.0 -1.0
  outer loop
    vertex 50.149244564287535 12.544180632106206 6.3449245857327695e-15
    vertex 50.018155651042 15.81712797405595 0.0
    vertex 52.918155651042014 10.794180632106205 0.0
  endloop
endfacet
facet normal 0.0 0.0 -1.0
  outer loop
    vertex 50.149244564287535 12.544180632106206 6.3449245857327695e-15
    vertex 52.918155651042014 10.794180632106205 0.0
    vertex 50.49889604305374 11.700047289965031 6.3449245857327695e-15
  endloop
endfacet
facet normal 0.0 0.0 -1.0
  outer loop
    vertex 50.49889604305374 11.700047289965031 6.3449245857327695e-15
    vertex 52.918155651042014 10.794180632106205 0.0
    vertex 50.618155651042 10.794180632106205 6.3449245857327695e-15
  endloop
endfacet
facet normal 0.0 0.0 -1.0
  outer loop
    vertex 43.618155651042 10.794180632106205 6.3449245857327695e-15
    vertex 44.218155651042004 5.771233290156462 0.0
    vertex 41.318155651042005 10.794180632106205 0.0
  endloop
endfacet
facet normal 0.0 0.0 -1.0
  outer loop
    vertex 44.218155651042004 5.771233290156462 0.0
    vertex 43.618155651042 10.794180632106205 6.3449245857327695e-15
    vertex 43.737415259030264 9.888313974247382 6.3449245857327695e-15
  endloop
endfacet
facet normal 0.0 0.0 -1.0
  outer loop
    vertex 44.218155651042004 5.771233290156462 0.0
    vertex 43.737415259030264 9.888313974247382 6.3449245857327695e-15
    vertex 44.08706673779647 9.044180632106205 6.3449245857327695e-15
  endloop
endfacet
facet normal 0.0 0.0 -1.0
  outer loop
    vertex 44.218155651042004 5.771233290156462 0.0
    vertex 44.08706673779647 9.044180632106205 6.3449245857327695e-15
    vertex 44.64328191688909 8.31930689795329 6.3449245857327695e-15
  endloop
endfacet
facet normal 0.0 0.0 -1.0
  outer loop
    vertex 44.218155651042004 5.771233290156462 0.0
    vertex 44.64328191688909 8.31930689795329 6.3449245857327695e-15
    vertex 45.36815565104201 7.763091718860671 6.3449245857327695e-15
  endloop
endfacet
facet normal 0.0 0.0 -1.0
  outer loop
    vertex 44.218155651042004 5.771233290156462 0.0
    vertex 45.36815565104201 7.763091718860671 6.3449245857327695e-15
    vertex 50.018155651042 5.7712332901564585 0.0
  endloop
endfacet
facet normal 0.0 0.0 -1.0
  outer loop
    vertex 50.018155651042 5.7712332901564585 0.0
    vertex 45.36815565104201 7.763091718860671 6.3449245857327695e-15
    vertex 46.21228899318318 7.4134402400944674 6.3449245857327695e-15
  endloop
endfacet
facet normal 0.0 0.0 -1.0
  outer loop
    vertex 50.018155651042 5.7712332901564585 0.0
    vertex 46.21228899318318 7.4134402400944674 6.3449245857327695e-15
    vertex 47.118155651042 7.294180632106206 6.3449245857327695e-15
  endloop
endfacet
facet normal 0.0 0.0 -1.0
  outer loop
    vertex 50.018155651042 5.7712332901564585 0.0
    vertex 47.118155651042 7.294180632106206 6.3449245857327695e-15
    vertex 48.024022308900825 7.4134402400944674 6.3449245857327695e-15
  endloop
endfacet
facet normal 0.0 0.0 -1.0
  outer loop
    vertex 50.018155651042 5.7712332901564585 0.0
    vertex 48.024022308900825 7.4134402400944674 6.3449245857327695e-15
    vertex 48.86815565104201 7.763091718860671 6.3449245857327695e-15
  endloop
endfacet
facet normal 0.0 0.0 -1.0
  outer loop
    vertex 50.018155651042 5.7712332901564585 0.0
    vertex 48.86815565104201 7.763091718860671 6.3449245857327695e-15
    vertex 49.593029385194924 8.31930689795329 6.3449245857327695e-15
  endloop
endfacet
facet normal 0.0 0.0 -1.0
  outer loop
    vertex 50.018155651042 5.7712332901564585 0.0
    vertex 49.593029385194924 8.31930689795329 6.3449245857327695e-15
    vertex 50.149244564287535 9.044180632106206 6.3449245857327695e-15
  endloop
endfacet
facet normal 0.0 0.0 -1.0
  outer loop
    vertex 50.018155651042 5.7712332901564585 0.0
    vertex 50.149244564287535 9.044180632106206 6.3449245857327695e-15
    vertex 52.918155651042014 10.794180632106205 0.0
  endloop
endfacet
facet normal 0.0 0.0 -1.0
  outer loop
    vertex 52.918155651042014 10.794180632106205 0.0
    vertex 50.149244564287535 9.044180632106206 6.3449245857327695e-15
    vertex 50.49889604305375 9.888313974247383 6.3449245857327695e-15
  endloop
endfacet
facet normal 0.0 0.0 -1.0
  outer loop
    vertex 52.918155651042014 10.794180632106205 0.0
    vertex 50.49889604305375 9.888313974247383 6.3449245857327695e-15
    vertex 50.618155651042 10.794180632106205 6.3449245857327695e-15
  endloop
endfacet
facet normal 0.0 0.0 1.0
  outer loop
    vertex 44.218155651042004 5.771233290156462 1.9999999999999998
    vertex 43.618155651042 10.794180632106205 1.9999999999999998
    vertex 41.318155651042005 10.794180632106205 1.9999999999999998
  endloop
endfacet
facet normal 0.0 0.0 1.0
  outer loop
    vertex 43.618155651042 10.794180632106205 1.9999999999999998
    vertex 44.218155651042004 5.771233290156462 1.9999999999999998
    vertex 43.737415259030264 9.888313974247382 1.9999999999999998
  endloop
endfacet
facet normal 0.0 0.0 1.0
  outer loop
    vertex 43.737415259030264 9.888313974247382 1.9999999999999998
    vertex 44.218155651042004 5.771233290156462 1.9999999999999998
    vertex 44.08706673779647 9.044180632106205 1.9999999999999998
  endloop
endfacet
facet normal 0.0 0.0 1.0
  outer loop
    vertex 44.08706673779647 9.044180632106205 1.9999999999999998
    vertex 44.218155651042004 5.771233290156462 1.9999999999999998
    vertex 44.64328191688909 8.31930689795329 1.9999999999999998
  endloop
endfacet
facet normal 0.0 0.0 1.0
  outer loop
    vertex 44.64328191688909 8.31930689795329 1.9999999999999998
    vertex 44.218155651042004 5.771233290156462 1.9999999999999998
    vertex 45.36815565104201 7.763091718860671 1.9999999999999998
  endloop
endfacet
facet normal 0.0 0.0 1.0
  outer loop
    vertex 45.36815565104201 7.763091718860671 1.9999999999999998
    vertex 44.218155651042004 5.771233290156462 1.9999999999999998
    vertex 50.018155651042 5.7712332901564585 1.9999999999999998
  endloop
endfacet
facet normal 0.0 0.0 1.0
  outer loop
    vertex 45.36815565104201 7.763091718860671 1.9999999999999998
    vertex 50.018155651042 5.7712332901564585 1.9999999999999998
    vertex 46.21228899318318 7.4134402400944674 1.9999999999999998
  endloop
endfacet
facet normal 0.0 0.0 1.0
  outer loop
    vertex 46.21228899318318 7.4134402400944674 1.9999999999999998
    vertex 50.018155651042 5.7712332901564585 1.9999999999999998
    vertex 47.118155651042 7.294180632106206 1.9999999999999998
  endloop
endfacet
facet normal 0.0 0.0 1.0
  outer loop
    vertex 47.118155651042 7.294180632106206 1.9999999999999998
    vertex 50.018155651042 5.7712332901564585 1.9999999999999998
    vertex 48.024022308900825 7.4134402400944674 1.9999999999999998
  endloop
endfacet
facet normal 0.0 0.0 1.0
  outer loop
    vertex 48.024022308900825 7.4134402400944674 1.9999999999999998
    vertex 50.018155651042 5.7712332901564585 1.9999999999999998
    vertex 48.86815565104201 7.763091718860671 1.9999999999999998
  endloop
endfacet
facet normal 0.0 0.0 1.0
  outer loop
    vertex 48.86815565104201 7.763091718860671 1.9999999999999998
    vertex 50.018155651042 5.7712332901564585 1.9999999999999998
    vertex 49.593029385194924 8.31930689795329 1.9999999999999998
  endloop
endfacet
facet normal 0.0 0.0 1.0
  outer loop
    vertex 49.593029385194924 8.31930689795329 1.9999999999999998
    vertex 50.018155651042 5.7712332901564585 1.9999999999999998
    vertex 50.149244564287535 9.044180632106206 1.9999999999999998
  endloop
endfacet
facet normal 0.0 0.0 1.0
  outer loop
    vertex 50.149244564287535 9.044180632106206 1.9999999999999998
    vertex 50.018155651042 5.7712332901564585 1.9999999999999998
    vertex 52.918155651042014 10.794180632106205 1.9999999999999998
  endloop
endfacet
facet normal 0.0 0.0 1.0
  outer loop
    vertex 50.149244564287535 9.044180632106206 1.9999999999999998
    vertex 52.918155651042014 10.794180632106205 1.9999999999999998
    vertex 50.49889604305375 9.888313974247383 1.9999999999999998
  endloop
endfacet
facet normal 0.0 0.0 1.0
  outer loop
    vertex 50.49889604305375 9.888313974247383 1.9999999999999998
    vertex 52.918155651042014 10.794180632106205 1.9999999999999998
    vertex 50.618155651042 10.794180632106205 1.9999999999999998
  endloop
endfacet
facet normal 0.0 0.0 1.0
  outer loop
    vertex 43.618155651042 10.794180632106205 1.9999999999999998
    vertex 44.218155651042004 15.81712797405595 1.9999999999999998
    vertex 41.318155651042005 10.794180632106205 1.9999999999999998
  endloop
endfacet
facet normal 0.0 0.0 1.0
  outer loop
    vertex 44.218155651042004 15.81712797405595 1.9999999999999998
    vertex 43.618155651042 10.794180632106205 1.9999999999999998
    vertex 43.737415259030264 11.700047289965026 1.9999999999999998
  endloop
endfacet
facet normal 0.0 0.0 1.0
  outer loop
    vertex 44.218155651042004 15.81712797405595 1.9999999999999998
    vertex 43.737415259030264 11.700047289965026 1.9999999999999998
    vertex 44.08706673779647 12.544180632106203 1.9999999999999998
  endloop
endfacet
facet normal 0.0 0.0 1.0
  outer loop
    vertex 44.218155651042004 15.81712797405595 1.9999999999999998
    vertex 44.08706673779647 12.544180632106203 1.9999999999999998
    vertex 44.64328191688909 13.26905436625912 1.9999999999999998
  endloop
endfacet
facet normal 0.0 0.0 1.0
  outer loop
    vertex 44.218155651042004 15.81712797405595 1.9999999999999998
    vertex 44.64328191688909 13.26905436625912 1.9999999999999998
    vertex 45.368155651042 13.82526954535174 1.9999999999999998
  endloop
endfacet
facet normal 0.0 0.0 1.0
  outer loop
    vertex 44.218155651042004 15.81712797405595 1.9999999999999998
    vertex 45.368155651042 13.82526954535174 1.9999999999999998
    vertex 50.018155651042 15.81712797405595 1.9999999999999998
  endloop
endfacet
facet normal 0.0 0.0 1.0
  outer loop
    vertex 50.018155651042 15.81712797405595 1.9999999999999998
    vertex 45.368155651042 13.82526954535174 1.9999999999999998
    vertex 46.21228899318318 14.174921024117944 1.9999999999999998
  endloop
endfacet
facet normal 0.0 0.0 1.0
  outer loop
    vertex 50.018155651042 15.81712797405595 1.9999999999999998
    vertex 46.21228899318318 14.174921024117944 1.9999999999999998
    vertex 47.118155651042 14.294180632106205 1.9999999999999998
  endloop
endfacet
facet normal 0.0 0.0 1.0
  outer loop
    vertex 50.018155651042 15.81712797405595 1.9999999999999998
    vertex 47.118155651042 14.294180632106205 1.9999999999999998
    vertex 48.024022308900825 14.174921024117944 1.9999999999999998
  endloop
endfacet
facet normal 0.0 0.0 1.0
  outer loop
    vertex 50.018155651042 15.81712797405595 1.9999999999999998
    vertex 48.024022308900825 14.174921024117944 1.9999999999999998
    vertex 48.868155651042 13.825269545351743 1.9999999999999998
  endloop
endfacet
facet normal 0.0 0.0 1.0
  outer loop
    vertex 50.018155651042 15.81712797405595 1.9999999999999998
    vertex 48.868155651042 13.825269545351743 1.9999999999999998
    vertex 49.593029385194924 13.269054366259123 1.9999999999999998
  endloop
endfacet
facet normal 0.0 0.0 1.0
  outer loop
    vertex 50.018155651042 15.81712797405595 1.9999999999999998
    vertex 49.593029385194924 13.269054366259123 1.9999999999999998
    vertex 50.149244564287535 12.544180632106206 1.9999999999999998
  endloop
endfacet
facet normal 0.0 0.0 1.0
  outer loop
    vertex 50.018155651042 15.81712797405595 1.9999999999999998
    vertex 50.149244564287535 12.544180632106206 1.9999999999999998
    vertex 52.918155651042014 10.794180632106205 1.9999999999999998
  endloop
endfacet
facet normal 0.0 0.0 1.0
  outer loop
    vertex 52.918155651042014 10.794180632106205 1.9999999999999998
    vertex 50.149244564287535 12.544180632106206 1.9999999999999998
    vertex 50.49889604305374 11.700047289965031 1.9999999999999998
  endloop
endfacet
facet normal 0.0 0.0 1.0
  outer loop
    vertex 52.918155651042014 10.794180632106205 1.9999999999999998
    vertex 50.49889604305374 11.700047289965031 1.9999999999999998
    vertex 50.618155651042 10.794180632106205 1.9999999999999998
  endloop
endfacet
facet normal -0.8660254037844387 0.5000000000000001 0.0
  outer loop
    vertex 44.218155651042004 15.81712797405595 1.9999999999999998
    vertex 41.318155651042005 10.794180632106205 0.0
    vertex 41.318155651042005 10.794180632106205 1.9999999999999998
  endloop
endfacet
facet normal -0.8660254037844387 0.5000000000000001 0.0
  outer loop
    vertex 41.318155651042005 10.794180632106205 0.0
    vertex 44.218155651042004 15.81712797405595 1.9999999999999998
    vertex 44.218155651042004 15.81712797405595 0.0
  endloop
endfacet
facet normal 0.8660254037844387 0.5000000000000001 0.0
  outer loop
    vertex 50.018155651042 15.81712797405595 0.0
    vertex 52.918155651042014 10.794180632106205 1.9999999999999998
    vertex 52.918155651042014 10.794180632106205 0.0
  endloop
endfacet
facet normal 0.8660254037844387 0.5000000000000001 0.0
  outer loop
    vertex 52.918155651042014 10.794180632106205 1.9999999999999998
    vertex 50.018155651042 15.81712797405595 0.0
    vertex 50.018155651042 15.81712797405595 1.9999999999999998
  endloop
endfacet
facet normal -4.862011176806724e-16 -1.0 -0.0
  outer loop
    vertex 50.018155651042 5.7712332901564585 1.9999999999999998
    vertex 44.218155651042004 5.771233290156462 0.0
    vertex 50.018155651042 5.7712332901564585 0.0
  endloop
endfacet
facet normal -4.862011176806724e-16 -1.0 -0.0
  outer loop
    vertex 44.218155651042004 5.771233290156462 0.0
    vertex 50.018155651042 5.7712332901564585 1.9999999999999998
    vertex 44.218155651042004 5.771233290156462 1.9999999999999998
  endloop
endfacet
facet normal 0.0 1.0 0.0
  outer loop
    vertex 44.218155651042004 15.81712797405595 1.9999999999999998
    vertex 50.018155651042 15.81712797405595 0.0
    vertex 44.218155651042004 15.81712797405595 0.0
  endloop
endfacet
facet normal 0.0 1.0 0.0
  outer loop
    vertex 50.018155651042 15.81712797405595 0.0
    vertex 44.218155651042004 15.81712797405595 1.9999999999999998
    vertex 50.018155651042 15.81712797405595 1.9999999999999998
  endloop
endfacet
facet normal -0.8660254037844387 -0.5000000000000001 -0.0
  outer loop
    vertex 41.318155651042005 10.794180632106205 1.9999999999999998
    vertex 44.218155651042004 5.771233290156462 0.0
    vertex 44.218155651042004 5.771233290156462 1.9999999999999998
  endloop
endfacet
facet normal -0.8660254037844387 -0.5000000000000001 -0.0
  outer loop
    vertex 44.218155651042004 5.771233290156462 0.0
    vertex 41.318155651042005 10.794180632106205 1.9999999999999998
    vertex 41.318155651042005 10.794180632106205 0.0
  endloop
endfacet
facet normal 0.8660254037844385 -0.5000000000000007 0.0
  outer loop
    vertex 52.918155651042014 10.794180632106205 0.0
    vertex 50.018155651042 5.7712332901564585 1.9999999999999998
    vertex 50.018155651042 5.7712332901564585 0.0
  endloop
endfacet
facet normal 0.8660254037844385 -0.5000000000000007 0.0
  outer loop
    vertex 50.018155651042 5.7712332901564585 1.9999999999999998
    vertex 52.918155651042014 10.794180632106205 0.0
    vertex 52.918155651042014 10.794180632106205 1.9999999999999998
  endloop
endfacet
facet normal 0.9914448613738108 -0.1305261922200489 0.0
  outer loop
    vertex 43.737415259030264 11.700047289965026 6.3449245857327695e-15
    vertex 43.618155651042 10.794180632106205 1.9999999999999998
    vertex 43.618155651042 10.794180632106205 6.3449245857327695e-15
  endloop
endfacet
facet normal 0.9914448613738108 -0.1305261922200489 0.0
  outer loop
    vertex 43.618155651042 10.794180632106205 1.9999999999999998
    vertex 43.737415259030264 11.700047289965026 6.3449245857327695e-15
    vertex 43.737415259030264 11.700047289965026 1.9999999999999998
  endloop
endfacet
facet normal 0.9914448613738108 0.13052619222004852 0.0
  outer loop
    vertex 43.618155651042 10.794180632106205 6.3449245857327695e-15
    vertex 43.737415259030264 9.888313974247382 1.9999999999999998
    vertex 43.737415259030264 9.888313974247382 6.3449245857327695e-15
  endloop
endfacet
facet normal 0.9914448613738108 0.13052619222004852 0.0
  outer loop
    vertex 43.737415259030264 9.888313974247382 1.9999999999999998
    vertex 43.618155651042 10.794180632106205 6.3449245857327695e-15
    vertex 43.618155651042 10.794180632106205 1.9999999999999998
  endloop
endfacet
facet normal 0.9238795325112855 0.3826834323650926 0.0
  outer loop
    vertex 43.737415259030264 9.888313974247382 6.3449245857327695e-15
    vertex 44.08706673779647 9.044180632106205 1.9999999999999998
    vertex 44.08706673779647 9.044180632106205 6.3449245857327695e-15
  endloop
endfacet
facet normal 0.9238795325112855 0.3826834323650926 0.0
  outer loop
    vertex 44.08706673779647 9.044180632106205 1.9999999999999998
    vertex 43.737415259030264 9.888313974247382 6.3449245857327695e-15
    vertex 43.737415259030264 9.888313974247382 1.9999999999999998
  endloop
endfacet
facet normal 0.7933533402912353 0.6087614290087207 0.0
  outer loop
    vertex 44.08706673779647 9.044180632106205 6.3449245857327695e-15
    vertex 44.64328191688909 8.31930689795329 1.9999999999999998
    vertex 44.64328191688909 8.31930689795329 6.3449245857327695e-15
  endloop
endfacet
facet normal 0.7933533402912353 0.6087614290087207 0.0
  outer loop
    vertex 44.64328191688909 8.31930689795329 1.9999999999999998
    vertex 44.08706673779647 9.044180632106205 6.3449245857327695e-15
    vertex 44.08706673779647 9.044180632106205 1.9999999999999998
  endloop
endfacet
facet normal 0.6087614290087185 0.7933533402912367 0.0
  outer loop
    vertex 44.64328191688909 8.31930689795329 1.9999999999999998
    vertex 45.36815565104201 7.763091718860671 6.3449245857327695e-15
    vertex 44.64328191688909 8.31930689795329 6.3449245857327695e-15
  endloop
endfacet
facet normal 0.6087614290087185 0.7933533402912367 0.0
  outer loop
    vertex 45.36815565104201 7.763091718860671 6.3449245857327695e-15
    vertex 44.64328191688909 8.31930689795329 1.9999999999999998
    vertex 45.36815565104201 7.763091718860671 1.9999999999999998
  endloop
endfacet
facet normal 0.3826834323650916 0.923879532511286 0.0
  outer loop
    vertex 45.36815565104201 7.763091718860671 1.9999999999999998
    vertex 46.21228899318318 7.4134402400944674 6.3449245857327695e-15
    vertex 45.36815565104201 7.763091718860671 6.3449245857327695e-15
  endloop
endfacet
facet normal 0.3826834323650916 0.923879532511286 0.0
  outer loop
    vertex 46.21228899318318 7.4134402400944674 6.3449245857327695e-15
    vertex 45.36815565104201 7.763091718860671 1.9999999999999998
    vertex 46.21228899318318 7.4134402400944674 1.9999999999999998
  endloop
endfacet
facet normal 0.13052619222005155 0.9914448613738105 0.0
  outer loop
    vertex 46.21228899318318 7.4134402400944674 1.9999999999999998
    vertex 47.118155651042 7.294180632106206 6.3449245857327695e-15
    vertex 46.21228899318318 7.4134402400944674 6.3449245857327695e-15
  endloop
endfacet
facet normal 0.13052619222005155 0.9914448613738105 0.0
  outer loop
    vertex 47.118155651042 7.294180632106206 6.3449245857327695e-15
    vertex 46.21228899318318 7.4134402400944674 1.9999999999999998
    vertex 47.118155651042 7.294180632106206 1.9999999999999998
  endloop
endfacet
facet normal -0.13052619222005155 0.9914448613738105 0.0
  outer loop
    vertex 47.118155651042 7.294180632106206 1.9999999999999998
    vertex 48.024022308900825 7.4134402400944674 6.3449245857327695e-15
    vertex 47.118155651042 7.294180632106206 6.3449245857327695e-15
  endloop
endfacet
facet normal -0.13052619222005155 0.9914448613738105 0.0
  outer loop
    vertex 48.024022308900825 7.4134402400944674 6.3449245857327695e-15
    vertex 47.118155651042 7.294180632106206 1.9999999999999998
    vertex 48.024022308900825 7.4134402400944674 1.9999999999999998
  endloop
endfacet
facet normal -0.38268343236508945 0.923879532511287 0.0
  outer loop
    vertex 48.024022308900825 7.4134402400944674 1.9999999999999998
    vertex 48.86815565104201 7.763091718860671 6.3449245857327695e-15
    vertex 48.024022308900825 7.4134402400944674 6.3449245857327695e-15
  endloop
endfacet
facet normal -0.38268343236508945 0.923879532511287 0.0
  outer loop
    vertex 48.86815565104201 7.763091718860671 6.3449245857327695e-15
    vertex 48.024022308900825 7.4134402400944674 1.9999999999999998
    vertex 48.86815565104201 7.763091718860671 1.9999999999999998
  endloop
endfacet
facet normal -0.6087614290087215 0.7933533402912344 0.0
  outer loop
    vertex 48.86815565104201 7.763091718860671 1.9999999999999998
    vertex 49.593029385194924 8.31930689795329 6.3449245857327695e-15
    vertex 48.86815565104201 7.763091718860671 6.3449245857327695e-15
  endloop
endfacet
facet normal -0.6087614290087215 0.7933533402912344 0.0
  outer loop
    vertex 49.593029385194924 8.31930689795329 6.3449245857327695e-15
    vertex 48.86815565104201 7.763091718860671 1.9999999999999998
    vertex 49.593029385194924 8.31930689795329 1.9999999999999998
  endloop
endfacet
facet normal -0.7933533402912359 0.6087614290087199 0.0
  outer loop
    vertex 50.149244564287535 9.044180632106206 1.9999999999999998
    vertex 49.593029385194924 8.31930689795329 6.3449245857327695e-15
    vertex 49.593029385194924 8.31930689795329 1.9999999999999998
  endloop
endfacet
facet normal -0.7933533402912359 0.6087614290087199 0.0
  outer loop
    vertex 49.593029385194924 8.31930689795329 6.3449245857327695e-15
    vertex 50.149244564287535 9.044180632106206 1.9999999999999998
    vertex 50.149244564287535 9.044180632106206 6.3449245857327695e-15
  endloop
endfacet
facet normal -0.9238795325112855 0.3826834323650926 0.0
  outer loop
    vertex 50.49889604305375 9.888313974247383 1.9999999999999998
    vertex 50.149244564287535 9.044180632106206 6.3449245857327695e-15
    vertex 50.149244564287535 9.044180632106206 1.9999999999999998
  endloop
endfacet
facet normal -0.9238795325112855 0.3826834323650926 0.0
  outer loop
    vertex 50.149244564287535 9.044180632106206 6.3449245857327695e-15
    vertex 50.49889604305375 9.888313974247383 1.9999999999999998
    vertex 50.49889604305375 9.888313974247383 6.3449245857327695e-15
  endloop
endfacet
facet normal -0.9914448613738108 0.13052619222004871 0.0
  outer loop
    vertex 50.618155651042 10.794180632106205 1.9999999999999998
    vertex 50.49889604305375 9.888313974247383 6.3449245857327695e-15
    vertex 50.49889604305375 9.888313974247383 1.9999999999999998
  endloop
endfacet
facet normal -0.9914448613738108 0.13052619222004871 0.0
  outer loop
    vertex 50.49889604305375 9.888313974247383 6.3449245857327695e-15
    vertex 50.618155651042 10.794180632106205 1.9999999999999998
    vertex 50.618155651042 10.794180632106205 6.3449245857327695e-15
  endloop
endfacet
facet normal -0.9914448613738102 -0.1305261922200544 -0.0
  outer loop
    vertex 50.49889604305374 11.700047289965031 1.9999999999999998
    vertex 50.618155651042 10.794180632106205 6.3449245857327695e-15
    vertex 50.618155651042 10.794180632106205 1.9999999999999998
  endloop
endfacet
facet normal -0.9914448613738102 -0.1305261922200544 -0.0
  outer loop
    vertex 50.618155651042 10.794180632106205 6.3449245857327695e-15
    vertex 50.49889604305374 11.700047289965031 1.9999999999999998
    vertex 50.49889604305374 11.700047289965031 6.3449245857327695e-15
  endloop
endfacet
facet normal -0.9238795325112875 -0.3826834323650879 -0.0
  outer loop
    vertex 50.149244564287535 12.544180632106206 1.9999999999999998
    vertex 50.49889604305374 11.700047289965031 6.3449245857327695e-15
    vertex 50.49889604305374 11.700047289965031 1.9999999999999998
  endloop
endfacet
facet normal -0.9238795325112875 -0.3826834323650879 -0.0
  outer loop
    vertex 50.49889604305374 11.700047289965031 6.3449245857327695e-15
    vertex 50.149244564287535 12.544180632106206 1.9999999999999998
    vertex 50.149244564287535 12.544180632106206 6.3449245857327695e-15
  endloop
endfacet
facet normal -0.7933533402912359 -0.6087614290087199 -0.0
  outer loop
    vertex 49.593029385194924 13.269054366259123 1.9999999999999998
    vertex 50.149244564287535 12.544180632106206 6.3449245857327695e-15
    vertex 50.149244564287535 12.544180632106206 1.9999999999999998
  endloop
endfacet
facet normal -0.7933533402912359 -0.6087614290087199 -0.0
  outer loop
    vertex 50.149244564287535 12.544180632106206 6.3449245857327695e-15
    vertex 49.593029385194924 13.269054366259123 1.9999999999999998
    vertex 49.593029385194924 13.269054366259123 6.3449245857327695e-15
  endloop
endfacet
facet normal -0.6087614290087195 -0.793353340291236 -0.0
  outer loop
    vertex 49.593029385194924 13.269054366259123 1.9999999999999998
    vertex 48.868155651042 13.825269545351743 6.3449245857327695e-15
    vertex 49.593029385194924 13.269054366259123 6.3449245857327695e-15
  endloop
endfacet
facet normal -0.6087614290087195 -0.793353340291236 -0.0
  outer loop
    vertex 48.868155651042 13.825269545351743 6.3449245857327695e-15
    vertex 49.593029385194924 13.269054366259123 1.9999999999999998
    vertex 48.868155651042 13.825269545351743 1.9999999999999998
  endloop
endfacet
facet normal -0.38268343236508684 -0.923879532511288 -0.0
  outer loop
    vertex 48.868155651042 13.825269545351743 1.9999999999999998
    vertex 48.024022308900825 14.174921024117944 6.3449245857327695e-15
    vertex 48.868155651042 13.825269545351743 6.3449245857327695e-15
  endloop
endfacet
facet normal -0.38268343236508684 -0.923879532511288 -0.0
  outer loop
    vertex 48.024022308900825 14.174921024117944 6.3449245857327695e-15
    vertex 48.868155651042 13.825269545351743 1.9999999999999998
    vertex 48.024022308900825 14.174921024117944 1.9999999999999998
  endloop
endfacet
facet normal -0.13052619222005235 -0.9914448613738103 -0.0
  outer loop
    vertex 48.024022308900825 14.174921024117944 1.9999999999999998
    vertex 47.118155651042 14.294180632106205 6.3449245857327695e-15
    vertex 48.024022308900825 14.174921024117944 6.3449245857327695e-15
  endloop
endfacet
facet normal -0.13052619222005235 -0.9914448613738103 -0.0
  outer loop
    vertex 47.118155651042 14.294180632106205 6.3449245857327695e-15
    vertex 48.024022308900825 14.174921024117944 1.9999999999999998
    vertex 47.118155651042 14.294180632106205 1.9999999999999998
  endloop
endfacet
facet normal 0.13052619222005155 -0.9914448613738105 0.0
  outer loop
    vertex 47.118155651042 14.294180632106205 1.9999999999999998
    vertex 46.21228899318318 14.174921024117944 6.3449245857327695e-15
    vertex 47.118155651042 14.294180632106205 6.3449245857327695e-15
  endloop
endfacet
facet normal 0.13052619222005155 -0.9914448613738105 0.0
  outer loop
    vertex 46.21228899318318 14.174921024117944 6.3449245857327695e-15
    vertex 47.118155651042 14.294180632106205 1.9999999999999998
    vertex 46.21228899318318 14.174921024117944 1.9999999999999998
  endloop
endfacet
facet normal 0.38268343236508945 -0.923879532511287 0.0
  outer loop
    vertex 46.21228899318318 14.174921024117944 1.9999999999999998
    vertex 45.368155651042 13.82526954535174 6.3449245857327695e-15
    vertex 46.21228899318318 14.174921024117944 6.3449245857327695e-15
  endloop
endfacet
facet normal 0.38268343236508945 -0.923879532511287 0.0
  outer loop
    vertex 45.368155651042 13.82526954535174 6.3449245857327695e-15
    vertex 46.21228899318318 14.174921024117944 1.9999999999999998
    vertex 45.368155651042 13.82526954535174 1.9999999999999998
  endloop
endfacet
facet normal 0.6087614290087225 -0.7933533402912338 0.0
  outer loop
    vertex 45.368155651042 13.82526954535174 1.9999999999999998
    vertex 44.64328191688909 13.26905436625912 6.3449245857327695e-15
    vertex 45.368155651042 13.82526954535174 6.3449245857327695e-15
  endloop
endfacet
facet normal 0.6087614290087225 -0.7933533402912338 0.0
  outer loop
    vertex 44.64328191688909 13.26905436625912 6.3449245857327695e-15
    vertex 45.368155651042 13.82526954535174 1.9999999999999998
    vertex 44.64328191688909 13.26905436625912 1.9999999999999998
  endloop
endfacet
facet normal 0.7933533402912359 -0.6087614290087199 0.0
  outer loop
    vertex 44.64328191688909 13.26905436625912 6.3449245857327695e-15
    vertex 44.08706673779647 12.544180632106203 1.9999999999999998
    vertex 44.08706673779647 12.544180632106203 6.3449245857327695e-15
  endloop
endfacet
facet normal 0.7933533402912359 -0.6087614290087199 0.0
  outer loop
    vertex 44.08706673779647 12.544180632106203 1.9999999999999998
    vertex 44.64328191688909 13.26905436625912 6.3449245857327695e-15
    vertex 44.64328191688909 13.26905436625912 1.9999999999999998
  endloop
endfacet
facet normal 0.9238795325112855 -0.3826834323650926 0.0
  outer loop
    vertex 44.08706673779647 12.544180632106203 6.3449245857327695e-15
    vertex 43.737415259030264 11.700047289965026 1.9999999999999998
    vertex 43.737415259030264 11.700047289965026 6.3449245857327695e-15
  endloop
endfacet
facet normal 0.9238795325112855 -0.3826834323650926 0.0
  outer loop
    vertex 43.737415259030264 11.700047289965026 1.9999999999999998
    vertex 44.08706673779647 12.544180632106203 6.3449245857327695e-15
    vertex 44.08706673779647 12.544180632106203 1.9999999999999998
  endloop
endfacet
endsolid knob_v2_nut
